<?xml version="1.0" encoding="UTF-8"?>
<!DOCTYPE svg PUBLIC "-//W3C//DTD SVG 1.1//EN" "http://www.w3.org/Graphics/SVG/1.1/DTD/svg11.dtd">
<!-- Creator: CorelDRAW -->
<svg xmlns="http://www.w3.org/2000/svg" xml:space="preserve" width="16.023cm" height="3.603cm" version="1.1" style="shape-rendering:geometricPrecision; text-rendering:geometricPrecision; image-rendering:optimizeQuality; fill-rule:evenodd; clip-rule:evenodd"
viewBox="0 0 1602300 360300"
 xmlns:xlink="http://www.w3.org/1999/xlink"
 xmlns:xodm="http://www.corel.com/coreldraw/odm/2003">
 <defs>
  <style type="text/css">
   <![CDATA[
    .fil0 {fill:black}
    .fil2 {fill:#61A169}
    .fil1 {fill:#666CFF;fill-rule:nonzero}
   ]]>
  </style>
 </defs>
 <g id="Layer_x0020_1">
  <metadata id="CorelCorpID_0Corel-Layer"/>
  <polygon class="fil0" points="985887,1284889 -1122544,-1241371 "/>
  <polygon class="fil0" points="769610,1284716 -1122544,-1241371 "/>
  <g id="_2613762425984">
   <path class="fil1" d="M552175 317314c-28784,-165 -53472,-4742 -74064,-13729 -20593,-8989 -36655,-22385 -48182,-40188 -11528,-17806 -17653,-39795 -18375,-65969 -219,-12212 -288,-25371 -206,-39473 83,-14099 304,-27403 667,-39903 1020,-25219 7465,-46409 19341,-63496 11874,-17087 28305,-29932 49292,-38533 20984,-8600 45435,-12819 73348,-12659 22391,131 42293,2864 59635,8198 17415,5335 32274,12544 44578,21628 12307,9088 21698,19246 28176,30479 6478,11230 9826,22808 10048,34658 -16,2617 -974,4863 -2872,6744 -1901,1880 -4160,2812 -6777,2797l-80179 -466c-2908,-16 -5231,-539 -6967,-1566 -1742,-1028 -3333,-2419 -4776,-4173 -1437,-2913 -3670,-6272 -6704,-9996 -3029,-3797 -7300,-7094 -12807,-9888 -5509,-2793 -12770,-4219 -21785,-4271 -13667,-80 -24299,3348 -31898,10282 -7601,6862 -11737,17889 -12404,33005 -1015,24418 -1159,49426 -433,75018 482,16574 4701,28595 12654,36057 7954,7459 18762,11230 32429,11310 9015,51 17089,-1357 24232,-4224 7140,-2864 12765,-7410 16873,-13641 4106,-6228 6187,-14282 6244,-24171l26 -4360 -30966 -181c-3199,-18 -5880,-1195 -8049,-3536 -2168,-2339 -3242,-4961 -3224,-7869l234 -40562c18,-3196 1123,-5880 3317,-8046 2195,-2169 4892,-3243 8088,-3225l114635 664c3199,18 5952,1123 8265,3318 2313,2194 3462,4891 3444,8088l-309 53211c-147,25587 -6380,47213 -18695,64879 -12314,17667 -29257,31089 -50829,40269 -21494,9180 -46530,13687 -75025,13520z"/>
   <path id="_1" class="fil1" d="M725481 313958c-2908,-16 -5517,-1121 -7830,-3315 -2315,-2197 -3459,-4891 -3441,-8090l1638 -282548c18,-3199 1195,-5883 3534,-8049 2339,-2168 4961,-3243 7869,-3227l213639 1239c3199,18 5953,1123 8268,3320 2313,2194 3459,4891 3441,8090l-298 51463c-16,2908 -1193,5520 -3532,7830 -2344,2313 -5110,3462 -8309,3444l-134694 -783 -250 43104 125100 726c3199,18 5952,1126 8265,3318 2313,2197 3462,4891 3444,8090l-273 47105c-18,3199 -1198,5880 -3537,8049 -2338,2166 -5105,3240 -8304,3222l-125099 -724 -258 44047 138187 801c3199,21 5952,1201 8265,3539 2311,2339 3460,5111 3442,8307l-297 51030c-18,3196 -1197,5880 -3536,8049 -2339,2166 -5105,3240 -8304,3222l-217130 -1259z"/>
   <path id="_2" class="fil1" d="M984244 315459c-2907,-18 -5517,-1123 -7830,-3317 -2313,-2195 -3459,-4891 -3441,-8090l1638 -282548c18,-3199 1195,-5880 3534,-8049 2339,-2168 4961,-3242 7869,-3224l119505 692c28204,163 52601,4884 73119,14162 20590,9280 36797,22820 48617,40626 11817,17809 18089,39579 18810,65462 510,12505 737,23555 680,33149 -54,9597 -410,20500 -1061,32706 -1322,27326 -7632,49825 -18927,67497 -11299,17672 -27150,30736 -47552,39197 -20330,8461 -44781,12608 -73274,12441l-121687 -704zm82864 -73667l37072 213c9594,57 17746,-1493 24451,-4654 6707,-3160 11972,-8144 15789,-14957 3820,-6810 5906,-15593 6259,-26352 340,-8430 600,-15987 785,-22674 183,-6689 222,-13376 116,-20065 -108,-6686 -280,-14104 -525,-22246 -489,-15993 -5000,-27653 -13535,-34898 -8536,-7318 -20073,-11019 -34610,-11104l-34893 -201 -909 156938z"/>
   <path id="_3" class="fil1" d="M1272170 318764c-5999,-36 -11362,-1211 -16091,-3531 -4731,-2316 -8420,-5417 -11067,-9304 -2651,-3886 -3962,-8229 -3934,-13028 47,-7850 3269,-14017 9677,-18506 6404,-4489 14955,-7573 25652,-9255l18823 -2835 8 -1147c18,-3379 -484,-5916 -1510,-7611 -1025,-1697 -3175,-2557 -6444,-2576 -2290,-12 -4147,415 -5569,1278 -1424,863 -2740,2110 -3948,3740 -1100,1193 -2519,1782 -4263,1772l-23063 -134c-1200,-5 -2122,-340 -2771,-997 -652,-656 -920,-1530 -807,-2622 122,-1962 953,-4273 2496,-6934 1541,-2663 3928,-5264 7161,-7809 3230,-2545 7413,-4621 12549,-6280 5133,-1658 11297,-2470 18493,-2426 7305,41 13574,894 18798,2560 5223,1667 9517,3951 12878,6916 3338,2962 5824,6550 7434,10759 1612,4206 2403,8870 2374,13996l-280 48413c-8,1200 -423,2205 -1244,3019 -825,811 -1834,1216 -3035,1208l-23851 -137c-1092,-7 -2070,-422 -2936,-1244 -868,-824 -1298,-1834 -1290,-3034l31 -5234c-1432,2174 -3323,4070 -5677,5690 -2354,1623 -5090,2916 -8201,3882 -3114,963 -6579,1432 -10393,1411zm9610 -21373c2725,15 5100,-541 7124,-1674 2022,-1134 3640,-2898 4855,-5288 1213,-2391 1832,-5389 1852,-8987l8 -1144 -11792 2223c-4038,737 -6879,1839 -8523,3302 -1643,1463 -2472,3068 -2483,4812 -7,1308 369,2454 1126,3438 757,987 1816,1785 3176,2393 1360,608 2910,915 4657,925z"/>
   <path id="_4" class="fil1" d="M1379801 353734c-8832,-51 -16160,-1210 -21979,-3479 -5821,-2272 -10465,-5023 -13937,-8261 -3472,-3237 -5934,-6411 -7387,-9530 -1455,-3114 -2231,-5545 -2328,-7289 -101,-1200 285,-2207 1164,-3019 873,-814 1911,-1215 3111,-1208l26334 152c1090,5 1989,281 2692,832 706,551 1275,1370 1705,2465 541,984 1159,1971 1862,2954 703,987 1708,1755 3014,2308 1306,552 2993,835 5066,845 2506,16 4554,-407 6141,-1272 1586,-863 2792,-2221 3621,-4067 827,-1850 1252,-4302 1270,-7354l62 -10960c-2630,2494 -5832,4467 -9602,5917 -3769,1450 -8217,2158 -13343,2130 -5342,-31 -10107,-793 -14297,-2292 -4188,-1494 -7720,-3779 -10592,-6849 -2874,-3068 -5141,-6952 -6802,-11653 -1664,-4698 -2584,-10318 -2764,-16860 -93,-2836 -77,-5669 49,-8505 255,-6107 1213,-11527 2875,-16258 1664,-4734 3976,-8673 6939,-11817 2962,-3148 6547,-5525 10753,-7189 4209,-1667 8984,-2483 14326,-2452 5561,33 10432,1123 14620,3273 4185,2123 7578,4897 10174,8292l33 -5561c6,-1172 420,-2179 1242,-2991 824,-814 1834,-1216 3034,-1208l23689 137c1200,7 2205,420 3019,1244 811,821 1215,1831 1208,3003l-291 78180c-49,8833 -1973,16073 -5765,21721 -3796,5649 -9028,9842 -15668,12585 -6666,2741 -14416,4088 -23248,4036zm-1103 -63632c2617,15 4745,-516 6388,-1600 1641,-1079 2875,-2516 3704,-4309 827,-1795 1357,-3838 1589,-6128 114,-978 180,-2557 193,-4739 13,-2182 -36,-3706 -139,-4582 -206,-2290 -711,-4338 -1517,-6141 -809,-1805 -2027,-3258 -3655,-4355 -1630,-1100 -3753,-1659 -6369,-1674 -2834,-16 -5075,543 -6715,1679 -1644,1136 -2823,2710 -3544,4721 -722,2014 -1198,4330 -1433,6944 -231,2290 -244,4526 -38,6705 203,2619 654,4940 1352,6960 695,2021 1860,3608 3488,4765 1627,1153 3861,1738 6696,1754z"/>
   <path id="_5" class="fil1" d="M1435992 318076c-1200,-5 -2204,-422 -3018,-1244 -812,-821 -1216,-1831 -1208,-3031l443 -76545c7,-1172 422,-2179 1244,-2991 824,-813 1834,-1215 3034,-1208l23717 137c1198,8 2205,420 3016,1244 814,822 1218,1834 1211,3006l-36 6050c3291,-3142 7037,-5630 11245,-7431 4209,-1831 8822,-2727 13837,-2699l7361 44c1198,5 2231,420 3101,1244 868,821 1299,1831 1291,3003l-124 21098c-5,1200 -448,2233 -1326,3101 -879,868 -1917,1298 -3114,1290l-18316 -105c-3926,-24 -6934,971 -9015,2975 -2084,2004 -3135,4968 -3158,8894l-227 39091c-7,1200 -422,2205 -1246,3019 -822,811 -1834,1215 -3032,1208l-25680 -150z"/>
   <path id="_6" class="fil1" d="M1543817 320338c-9598,-57 -17685,-1520 -24264,-4394 -6581,-2875 -11598,-7073 -15057,-12601 -3459,-5527 -5383,-12160 -5772,-19905 -96,-2290 -134,-4798 -119,-7523 16,-2725 85,-5234 206,-7524 479,-7848 2591,-14486 6331,-19918 3738,-5430 8915,-9543 15527,-12312 6614,-2797 14501,-4167 23660,-4116 9159,54 17026,1517 23606,4392 6581,2843 11681,7016 15357,12489 3678,5476 5710,12137 6099,19990 206,2293 299,4802 283,7527 -15,2725 -139,5231 -370,7521 -480,7740 -2481,14349 -6002,19838 -3521,5486 -8587,9625 -15176,12425 -6612,2797 -14715,4165 -24309,4111zm133 -23063c4034,23 6821,-1159 8361,-3549 1541,-2391 2434,-5984 2679,-10780 118,-1635 188,-3868 203,-6704 18,-2836 -25,-5072 -126,-6707 -190,-4691 -1040,-8266 -2552,-10728 -1515,-2460 -4286,-3707 -8320,-3730 -3925,-23 -6661,1190 -8198,3634 -1543,2445 -2491,6010 -2844,10697 -118,1633 -185,3869 -201,6705 -18,2836 23,5069 121,6705 302,4801 1208,8404 2720,10812 1512,2409 4232,3622 8157,3645z"/>
   <path class="fil2" d="M169577 216789c-67633,-92560 -125638,-3567 -158419,-96723 -2563,47087 356,85537 27741,113280 29700,30092 52804,43867 108285,33185 -4345,-2921 1043,-1020 -9265,-4201l-36747 -6248c-42121,-9134 -76641,-47728 -76919,-87543 46986,21545 112443,-3697 141783,71141 -27236,-18177 -61364,-38505 -106413,-38922l26846 12268 -18200 7892c21657,83 28346,-5898 47388,4209 -8427,3753 -26195,13654 -33700,13023 24368,3011 35998,-8879 61727,-1561l-15998 8641c-6463,2076 -13525,3495 -19166,5383 56016,374 57804,-6745 72849,50242 3879,14692 365,12881 11778,15867 12392,-17232 -18030,-41384 -3420,-79708 13553,-35555 32098,-17373 62780,-34146 871,-477 2045,-1350 2748,-1765 719,-425 1901,-1177 2772,-1870l-41611 1837c8173,-10597 11910,-9234 28068,-12549l26586 -6728c8546,-3776 4260,-1736 8227,-4659l-38128 628c9746,-9556 4806,-8783 21844,-11699 9389,-1607 20276,-2707 30061,-4031l-25471 -3430c20132,-14494 16753,-10381 47208,-15153l-21134 -3400c3972,-3307 10568,-10365 14069,-13935l-20421 6187 2633 -15003c-34,-441 -160,-1636 -456,-2391 -8850,21433 -10586,22821 -28575,32601l6341 -29582c-12577,16639 -12863,29028 -28479,43980l8667 -40523c-1834,4551 -19833,39143 -24541,49358 -7928,17198 -12562,14308 -25564,29463 -716,835 -5249,6494 -5314,6566 -5216,5831 -345,1903 -6642,6717 4010,-55071 27261,-88259 69819,-106134 20799,-8737 45366,-10530 68931,-15640 11434,-2480 23929,-5728 33963,-10256 5783,-2610 11223,-6458 13569,-8281l15045 -11442c-21,45474 -16145,88417 -45647,120446 -26947,29262 -72727,30697 -117771,45020 55241,7733 99309,1118 134470,-43158 31274,-39375 48410,-83386 39282,-139810 -1824,-11271 -3671,-21198 -10262,-29927 -7712,32369 -13597,48717 -43813,59376 -25527,9004 -59535,9416 -86992,19686 -75862,28374 -71573,75787 -86412,123422z"/>
  </g>
 </g>
</svg>
