<?xml version="1.0" encoding="UTF-8"?>
<!DOCTYPE svg PUBLIC "-//W3C//DTD SVG 1.1//EN" "http://www.w3.org/Graphics/SVG/1.1/DTD/svg11.dtd">
<!-- Creator: CorelDRAW -->
<svg xmlns="http://www.w3.org/2000/svg" xml:space="preserve" width="110.87mm" height="110.871mm" version="1.1" style="shape-rendering:geometricPrecision; text-rendering:geometricPrecision; image-rendering:optimizeQuality; fill-rule:evenodd; clip-rule:evenodd"
viewBox="0 0 110870 110871"
 xmlns:xlink="http://www.w3.org/1999/xlink"
 xmlns:xodm="http://www.corel.com/coreldraw/odm/2003">
 <defs>
  <style type="text/css">
   <![CDATA[
    .fil0 {fill:black}
    .fil2 {fill:white}
    .fil1 {fill:white;fill-rule:nonzero}
   ]]>
  </style>
 </defs>
 <g id="Layer_x0020_1">
  <metadata id="CorelCorpID_0Corel-Layer"/>
  <polygon class="fil0" points="18521.5,58807.6 -63336.9,-39272.7 "/>
  <polygon class="fil0" points="10124.7,58800.9 -63336.9,-39272.7 "/>
  <g id="_2257477466640">
   <path class="fil1" d="M47131.4 59312.9c-1117.5,-6.4 -2076,-184.1 -2875.5,-533 -799.5,-349 -1423.1,-869.1 -1870.6,-1560.3 -447.6,-691.3 -685.4,-1545 -713.4,-2561.2 -8.5,-474.1 -11.2,-985 -8,-1532.5 3.2,-547.4 11.8,-1063.9 25.9,-1549.2 39.6,-979.1 289.8,-1801.8 750.9,-2465.2 461,-663.4 1098.9,-1162.1 1913.7,-1496 814.7,-333.9 1764,-497.7 2847.7,-491.5 869.3,5.1 1642,111.2 2315.3,318.3 676.1,207.1 1253,487 1730.7,839.7 477.8,352.8 842.4,747.2 1093.9,1183.3 251.5,436 381.5,885.5 390.1,1345.6 -0.6,101.6 -37.8,188.8 -111.5,261.8 -73.8,73 -161.5,109.2 -263.1,108.6l-3112.9 -18.1c-112.9,-0.6 -203.1,-20.9 -270.5,-60.8 -67.6,-39.9 -129.4,-93.9 -185.4,-162 -55.8,-113.1 -142.5,-243.5 -260.3,-388.1 -117.6,-147.4 -283.4,-275.4 -497.2,-383.9 -213.9,-108.4 -495.8,-163.8 -845.8,-165.8 -530.6,-3.1 -943.4,130 -1238.4,399.2 -295.1,266.4 -455.7,694.5 -481.6,1281.4 -39.4,948 -45,1918.9 -16.8,2912.5 18.7,643.5 182.5,1110.2 491.3,1399.9 308.8,289.6 728.4,436 1259,439.1 350,2 663.5,-52.7 940.8,-164 277.2,-111.2 495.6,-287.7 655.1,-529.6 159.4,-241.8 240.2,-554.5 242.4,-938.4l1 -169.3 -1202.2 -7c-124.2,-0.7 -228.3,-46.4 -312.5,-137.3 -84.2,-90.8 -125.9,-192.6 -125.2,-305.5l9.1 -1574.8c0.7,-124.1 43.6,-228.3 128.8,-312.4 85.2,-84.2 189.9,-125.9 314,-125.2l4450.6 25.8c124.2,0.7 231.1,43.6 320.9,128.8 89.8,85.2 134.4,189.9 133.7,314l-12 2065.9c-5.7,993.4 -247.7,1833 -725.8,2518.9 -478.1,685.9 -1135.9,1207 -1973.4,1563.4 -834.5,356.4 -1806.5,531.4 -2912.8,524.9z"/>
   <path id="_1" class="fil1" d="M53859.9 59182.6c-112.9,-0.6 -214.2,-43.5 -304,-128.7 -89.9,-85.3 -134.3,-189.9 -133.6,-314.1l63.6 -10969.7c0.7,-124.2 46.4,-228.4 137.2,-312.5 90.8,-84.2 192.6,-125.9 305.5,-125.3l8294.4 48.1c124.2,0.7 231.1,43.6 321,128.9 89.8,85.2 134.3,189.9 133.6,314.1l-11.6 1998c-0.6,112.9 -46.3,214.3 -137.1,304 -91,89.8 -198.4,134.4 -322.6,133.7l-5229.4 -30.4 -9.7 1673.5 4856.9 28.2c124.2,0.7 231.1,43.7 320.9,128.8 89.8,85.3 134.4,189.9 133.7,314.1l-10.6 1828.8c-0.7,124.2 -46.5,228.3 -137.3,312.5 -90.8,84.1 -198.2,125.8 -322.4,125.1l-4856.9 -28.1 -10 1710.1 5365 31.1c124.2,0.8 231.1,46.6 320.9,137.4 89.7,90.8 134.3,198.4 133.6,322.5l-11.5 1981.2c-0.7,124.1 -46.5,228.3 -137.3,312.5 -90.8,84.1 -198.2,125.8 -322.4,125.1l-8429.9 -48.9z"/>
   <path id="_2" class="fil1" d="M63906.2 59240.9c-112.9,-0.7 -214.2,-43.6 -304,-128.8 -89.8,-85.2 -134.3,-189.9 -133.6,-314.1l63.6 -10969.7c0.7,-124.2 46.4,-228.3 137.2,-312.5 90.8,-84.2 192.6,-125.9 305.5,-125.2l4639.7 26.9c1095,6.3 2042.2,189.6 2838.8,549.8 799.4,360.3 1428.6,886 1887.5,1577.3 458.8,691.4 702.3,1536.6 730.3,2541.5 19.8,485.5 28.6,914.5 26.4,1287 -2.1,372.6 -15.9,795.9 -41.2,1269.8 -51.3,1060.9 -296.3,1934.4 -734.8,2620.5 -438.7,686.1 -1054.1,1193.3 -1846.2,1521.8 -789.3,328.5 -1738.6,489.5 -2844.8,483l-4724.4 -27.3zm3217.1 -2860.1l1439.3 8.3c372.5,2.2 689,-58 949.3,-180.7 260.4,-122.7 464.8,-316.2 613,-580.7 148.3,-264.4 229.3,-605.4 243,-1023.1 13.2,-327.3 23.3,-620.7 30.5,-880.3 7.1,-259.7 8.6,-519.3 4.5,-779 -4.2,-259.6 -10.9,-547.6 -20.4,-863.7 -19,-620.9 -194.1,-1073.6 -525.5,-1354.9 -331.4,-284.1 -779.3,-427.8 -1343.7,-431.1l-1354.7 -7.8 -35.3 6093z"/>
   <path id="_3" class="fil1" d="M75084.7 59369.2c-232.9,-1.4 -441.1,-47 -624.7,-137.1 -183.7,-89.9 -326.9,-210.3 -429.7,-361.2 -102.9,-150.9 -153.8,-319.5 -152.7,-505.8 1.8,-304.8 126.9,-544.2 375.7,-718.5 248.6,-174.3 580.6,-294 995.9,-359.3l730.8 -110.1 0.3 -44.5c0.7,-131.2 -18.8,-229.7 -58.6,-295.5 -39.8,-65.9 -123.3,-99.3 -250.2,-100 -88.9,-0.5 -161,16.1 -216.2,49.6 -55.3,33.5 -106.4,81.9 -153.3,145.2 -42.7,46.3 -97.8,69.2 -165.5,68.8l-895.4 -5.2c-46.6,-0.2 -82.4,-13.2 -107.6,-38.7 -25.3,-25.5 -35.7,-59.4 -31.3,-101.8 4.7,-76.2 37,-165.9 96.9,-269.2 59.8,-103.4 152.5,-204.4 278,-303.2 125.4,-98.8 287.8,-179.4 487.2,-243.8 199.3,-64.4 438.6,-95.9 718,-94.2 283.6,1.6 527,34.7 729.8,99.4 202.8,64.7 369.5,153.4 500,268.5 129.6,115 226.1,254.3 288.6,417.7 62.6,163.3 93.3,344.4 92.2,543.4l-10.9 1879.6c-0.3,46.6 -16.4,85.6 -48.3,117.2 -32,31.5 -71.2,47.2 -117.8,46.9l-926 -5.3c-42.4,-0.3 -80.4,-16.4 -114,-48.3 -33.7,-32 -50.4,-71.2 -50.1,-117.8l1.2 -203.2c-55.6,84.4 -129,158 -220.4,220.9 -91.4,63 -197.6,113.2 -318.4,150.7 -120.9,37.4 -255.4,55.6 -403.5,54.8zm373.1 -829.8c105.8,0.6 198,-21 276.6,-65 78.5,-44 141.3,-112.5 188.5,-205.3 47.1,-92.8 71.1,-209.2 71.9,-348.9l0.3 -44.4 -457.8 86.3c-156.8,28.6 -267.1,71.4 -330.9,128.2 -63.8,56.8 -96,119.1 -96.4,186.8 -0.3,50.8 14.3,95.3 43.7,133.5 29.4,38.3 70.5,69.3 123.3,92.9 52.8,23.6 113,35.5 180.8,35.9z"/>
   <path id="_4" class="fil1" d="M79263.4 60726.9c-342.9,-2 -627.4,-47 -853.3,-135.1 -226,-88.2 -406.3,-195 -541.1,-320.7 -134.8,-125.7 -230.4,-248.9 -286.8,-370 -56.5,-120.9 -86.6,-215.3 -90.4,-283 -3.9,-46.6 11.1,-85.7 45.2,-117.2 33.9,-31.6 74.2,-47.2 120.8,-46.9l1022.4 5.9c42.3,0.2 77.2,10.9 104.5,32.3 27.4,21.4 49.5,53.2 66.2,95.7 21,38.2 45,76.5 72.3,114.7 27.3,38.3 66.3,68.1 117,89.6 50.7,21.4 116.2,32.4 196.7,32.8 97.3,0.6 176.8,-15.8 238.4,-49.4 61.6,-33.5 108.4,-86.2 140.6,-157.9 32.1,-71.8 48.6,-167 49.3,-285.5l2.4 -425.5c-102.1,96.8 -226.4,173.4 -372.8,229.7 -146.3,56.3 -319,83.8 -518,82.7 -207.4,-1.2 -392.4,-30.8 -555.1,-89 -162.6,-58 -299.7,-146.7 -411.2,-265.9 -111.6,-119.1 -199.6,-269.9 -264.1,-452.4 -64.6,-182.4 -100.3,-400.6 -107.3,-654.6 -3.6,-110.1 -3,-220.1 1.9,-330.2 9.9,-237.1 47.1,-447.5 111.6,-631.2 64.6,-183.8 154.4,-336.7 269.4,-458.8 115,-122.2 254.2,-214.5 417.5,-279.1 163.4,-64.7 348.8,-96.4 556.2,-95.2 215.9,1.3 405,43.6 567.6,127.1 162.5,82.4 294.2,190.1 395,321.9l1.3 -215.9c0.2,-45.5 16.3,-84.6 48.2,-116.1 32,-31.6 71.2,-47.2 117.8,-46.9l919.7 5.3c46.6,0.3 85.6,16.3 117.2,48.3 31.5,31.9 47.2,71.1 46.9,116.6l-11.3 3035.3c-1.9,342.9 -76.6,624 -223.8,843.3 -147.4,219.3 -350.5,382.1 -608.3,488.6 -258.8,106.4 -559.7,158.7 -902.6,156.7zm-42.8 -2470.5c101.6,0.6 184.2,-20 248,-62.1 63.7,-41.9 111.6,-97.7 143.8,-167.3 32.1,-69.7 52.7,-149 61.7,-237.9 4.4,-38 7,-99.3 7.5,-184 0.5,-84.7 -1.4,-143.9 -5.4,-177.9 -8,-88.9 -27.6,-168.4 -58.9,-238.4 -31.4,-70.1 -78.7,-126.5 -141.9,-169.1 -63.3,-42.7 -145.7,-64.4 -247.3,-65 -110,-0.6 -197,21.1 -260.7,65.2 -63.8,44.1 -109.6,105.2 -137.6,183.3 -28,78.2 -46.5,168.1 -55.6,269.6 -9,88.9 -9.5,175.7 -1.5,260.3 7.9,101.7 25.4,191.8 52.5,270.2 27,78.5 72.2,140.1 135.4,185 63.2,44.8 149.9,67.5 260,68.1z"/>
   <path id="_5" class="fil1" d="M81445 59342.5c-46.6,-0.2 -85.6,-16.4 -117.2,-48.3 -31.5,-31.9 -47.2,-71.1 -46.9,-117.7l17.2 -2971.8c0.3,-45.5 16.4,-84.6 48.3,-116.1 32,-31.6 71.2,-47.2 117.8,-46.9l920.8 5.3c46.5,0.3 85.6,16.3 117.1,48.3 31.6,31.9 47.3,71.2 47,116.7l-1.4 234.9c127.8,-122 273.2,-218.6 436.6,-288.5 163.4,-71.1 342.5,-105.9 537.2,-104.8l285.8 1.7c46.5,0.2 86.6,16.3 120.4,48.3 33.7,31.9 50.4,71.1 50.1,116.6l-4.8 819.1c-0.2,46.6 -17.4,86.7 -51.5,120.4 -34.1,33.7 -74.4,50.4 -120.9,50.1l-711.1 -4.1c-152.4,-0.9 -269.2,37.7 -350,115.5 -80.9,77.8 -121.7,192.9 -122.6,345.3l-8.8 1517.7c-0.3,46.6 -16.4,85.6 -48.4,117.2 -31.9,31.5 -71.2,47.2 -117.7,46.9l-997 -5.8z"/>
   <path id="_6" class="fil1" d="M85631.2 59430.3c-372.6,-2.2 -686.6,-59 -942,-170.6 -255.5,-111.6 -450.3,-274.6 -584.6,-489.2 -134.3,-214.6 -209,-472.1 -224.1,-772.8 -3.7,-88.9 -5.2,-186.3 -4.6,-292.1 0.6,-105.8 3.3,-203.2 8,-292.1 18.6,-304.7 100.6,-562.4 245.8,-773.3 145.1,-210.8 346.1,-370.5 602.8,-478 256.8,-108.6 563,-161.8 918.6,-159.8 355.6,2.1 661,58.9 916.5,170.5 255.5,110.4 453.5,272.4 596.2,484.9 142.8,212.6 221.7,471.2 236.8,776.1 8,89 11.6,186.4 11,292.2 -0.6,105.8 -5.4,203.1 -14.4,292 -18.6,300.5 -96.3,557.1 -233,770.2 -136.7,213 -333.4,373.7 -589.2,482.4 -256.7,108.6 -571.3,161.7 -943.8,159.6zm5.2 -895.4c156.6,0.9 264.8,-45 324.6,-137.8 59.8,-92.8 94.5,-232.3 104,-418.5 4.6,-63.5 7.3,-150.2 7.9,-260.3 0.7,-110.1 -1,-196.9 -4.9,-260.4 -7.4,-182.1 -40.4,-320.9 -99.1,-416.5 -58.8,-95.5 -166.4,-143.9 -323,-144.8 -152.4,-0.9 -258.6,46.2 -318.3,141.1 -59.9,94.9 -96.7,233.3 -110.4,415.3 -4.6,63.4 -7.2,150.2 -7.8,260.3 -0.7,110.1 0.9,196.8 4.7,260.3 11.7,186.4 46.9,326.3 105.6,419.8 58.7,93.5 164.3,140.6 316.7,141.5z"/>
   <path class="fil2" d="M32277.3 55410.1c-2625.8,-3593.6 -4877.8,-138.5 -6150.5,-3755.2 -99.5,1828.1 13.8,3320.9 1077,4398 1153.1,1168.3 2050.1,1703.1 4204.1,1288.4 -168.7,-113.4 40.5,-39.6 -359.7,-163.1l-1426.7 -242.6c-1635.3,-354.6 -2975.5,-1853 -2986.3,-3398.8 1824.2,836.5 4365.5,-143.5 5504.6,2762 -1057.4,-705.7 -2382.4,-1494.9 -4131.4,-1511.1l1042.3 476.3 -706.6 306.4c840.8,3.2 1100.5,-229 1839.8,163.4 -327.2,145.7 -1017,530.1 -1308.4,505.6 946.1,116.9 1397.6,-344.7 2396.5,-60.6l-621.1 335.5c-250.9,80.6 -525.1,135.7 -744.1,209 2174.8,14.5 2244.2,-261.9 2828.3,1950.6 150.6,570.4 14.2,500.1 457.3,616 481.1,-669 -700,-1606.7 -132.8,-3094.6 526.2,-1380.4 1246.2,-674.5 2437.4,-1325.7 33.8,-18.5 79.4,-52.4 106.7,-68.5 27.9,-16.5 73.8,-45.7 107.6,-72.6l-1615.5 71.3c317.3,-411.4 462.4,-358.5 1089.7,-487.2l1032.2 -261.2c331.8,-146.6 165.4,-67.4 319.4,-180.9l-1480.3 24.4c378.4,-371 186.6,-341 848.1,-454.2 364.5,-62.4 787.2,-105.1 1167.1,-156.5l-988.9 -133.2c781.6,-562.7 650.4,-403 1832.8,-588.3l-820.5 -132c154.2,-128.4 410.3,-402.4 546.2,-541l-792.8 240.2 102.2 -582.5c-1.3,-17.1 -6.2,-63.5 -17.7,-92.8 -343.6,832.1 -411,886 -1109.4,1265.7l246.2 -1148.5c-488.3,646 -499.4,1127 -1105.7,1707.5l336.5 -1573.3c-71.2,176.7 -770,1519.7 -952.8,1916.3 -307.8,667.7 -487.7,555.5 -992.5,1143.9 -27.8,32.4 -203.8,252.1 -206.3,254.9 -202.5,226.4 -13.4,73.9 -257.9,260.8 155.7,-2138.1 1058.4,-3426.6 2710.7,-4120.6 807.5,-339.2 1761.3,-408.8 2676.2,-607.2 443.9,-96.3 929,-222.4 1318.6,-398.2 224.5,-101.3 435.7,-250.7 526.8,-321.5l584.1 -444.2c-0.8,1765.5 -626.8,3432.7 -1772.2,4676.2 -1046.2,1136.1 -2823.6,1191.8 -4572.4,1747.9 2144.7,300.2 3855.6,43.4 5220.7,-1675.6 1214.2,-1528.7 1879.5,-3237.4 1525.1,-5428 -70.8,-437.6 -142.5,-823 -398.4,-1161.9 -299.4,1256.7 -527.9,1891.4 -1701,2305.2 -991.1,349.6 -2311.4,365.6 -3377.4,764.3 -2945.3,1101.6 -2778.8,2942.4 -3354.9,4791.8z"/>
  </g>
 </g>
</svg>
